<svg width="1920" height="1080" viewBox="0 0 1920 1080" xmlns="http://www.w3.org/2000/svg"><rect width="1920" height="1080" fill="#fff4ed"/><path d="M1920,1080C1633,1198.1666666666667,289.6666666666667,1192,0,1080C-289.6666666666667,968,118.83333333333334,516.3333333333334,182,408C245.16666666666666,299.6666666666667,313.8333333333333,372.1666666666667,379,430C444.1666666666667,487.8333333333333,508.8333333333333,757.3333333333334,573,755C637.1666666666666,752.6666666666666,700.8333333333334,502.8333333333333,764,416C827.1666666666666,329.1666666666667,888.3333333333334,199.16666666666666,952,234C1015.6666666666666,268.8333333333333,1081.5,504.1666666666667,1146,625C1210.5,745.8333333333334,1275.3333333333333,1009.5,1339,959C1402.6666666666667,908.5,1464.1666666666667,420,1528,322C1591.8333333333333,224,1656.6666666666667,244.66666666666669,1722,371C1787.3333333333333,497.3333333333333,2207,961.8333333333334,1920,1080C1633,1198.1666666666667,289.6666666666667,1192,0,1080" fill="#000000"/></svg>